<svg id="Layer_1" data-name="Layer 1" xmlns="http://www.w3.org/2000/svg" viewBox="0 0 122.88 122.88"><defs><style>.cls-1{fill-rule:evenodd;}</style></defs><title>diode</title><path class="cls-1" d="M72.9,31,80,38.15,117.18,1A3.34,3.34,0,0,1,121.9,5.7L84.73,42.87,91.85,50a5.65,5.65,0,0,1,0,8L69.32,80.46l0,0L42.46,53.6l0,0L64.94,31a5.64,5.64,0,0,1,8,0Zm-30,53.7L5.7,121.9A3.34,3.34,0,0,1,1,117.18L38.15,80,31,72.9a5.63,5.63,0,0,1,0-8l6.67-6.67,0,0L64.56,85.14l0,0-6.67,6.67a5.63,5.63,0,0,1-8,0l-7.11-7.12Z"/></svg>