<?xml version="1.0" encoding="utf-8"?><svg version="1.1" id="Layer_1" xmlns="http://www.w3.org/2000/svg" xmlns:xlink="http://www.w3.org/1999/xlink" x="0px" y="0px" viewBox="0 0 122.88 117.61" style="enable-background:new 0 0 122.88 117.61" xml:space="preserve"><style type="text/css"><![CDATA[
	.st0{fill-rule:evenodd;clip-rule:evenodd;}
]]></style><g><path class="st0" d="M71.39,103.48h3.64v-6.8h-3.64V103.48L71.39,103.48L71.39,103.48z M6.03,0h110.81c1.65,0,3.16,0.68,4.25,1.77 c1.1,1.1,1.78,2.61,1.78,4.26v105.54c0,1.66-0.68,3.17-1.77,4.27c-1.09,1.09-2.6,1.77-4.26,1.77H6.03c-1.66,0-3.17-0.68-4.26-1.77 S0,113.23,0,111.57V6.03c0-1.65,0.68-3.16,1.78-4.26C2.88,0.68,4.38,0,6.03,0L6.03,0z M115.35,7.53H7.53v46.73h10.68v-4.04 c-0.1-0.04-0.19-0.1-0.27-0.15c-0.16-0.1-0.31-0.22-0.44-0.34l-0.01-0.02c-0.23-0.22-0.41-0.5-0.54-0.8 c-0.12-0.3-0.19-0.63-0.19-0.97c0-0.35,0.07-0.67,0.19-0.97l0,0c0.13-0.31,0.32-0.59,0.55-0.84c0.23-0.23,0.51-0.42,0.82-0.55 c0.31-0.12,0.63-0.19,0.97-0.19c0.35,0,0.67,0.07,0.97,0.19c0.31,0.13,0.59,0.32,0.83,0.55c0.23,0.24,0.42,0.51,0.55,0.82 l0.01,0.02c0.12,0.29,0.19,0.62,0.19,0.95c0,0.34-0.07,0.67-0.19,0.97c-0.13,0.31-0.32,0.59-0.55,0.82l-0.02,0.02 c-0.12,0.11-0.24,0.22-0.38,0.31c-0.08,0.05-0.15,0.1-0.23,0.13v5.21c0,0.31-0.13,0.6-0.33,0.8c-0.21,0.2-0.49,0.33-0.8,0.33H7.53 v3.4h16.61l0,0c0.04-0.09,0.09-0.17,0.14-0.25l0.01-0.01c0.1-0.15,0.21-0.28,0.33-0.4c0.24-0.23,0.51-0.42,0.83-0.55l0.02-0.01 c0.3-0.12,0.62-0.19,0.95-0.19c0.34,0,0.67,0.07,0.97,0.19c0.31,0.13,0.6,0.32,0.82,0.55c0.23,0.23,0.42,0.51,0.55,0.82 c0.12,0.31,0.19,0.63,0.19,0.97c0,0.35-0.07,0.67-0.19,0.97c-0.13,0.31-0.32,0.59-0.55,0.82c-0.24,0.23-0.51,0.42-0.82,0.55 l-0.02,0.01c-0.3,0.12-0.62,0.19-0.95,0.19c-0.35,0-0.67-0.07-0.97-0.19c-0.31-0.13-0.59-0.32-0.83-0.55 c-0.12-0.12-0.24-0.26-0.33-0.42c-0.05-0.08-0.1-0.17-0.14-0.25H7.53v3.92h18.76l0,0c0.31,0,0.59,0.13,0.8,0.33 c0.21,0.2,0.33,0.48,0.33,0.8v8.39c0.1,0.04,0.21,0.1,0.31,0.16c0.17,0.11,0.34,0.23,0.48,0.38c0.23,0.24,0.42,0.51,0.55,0.82 l0.01,0.02c0.12,0.3,0.18,0.62,0.18,0.95c0,0.34-0.07,0.67-0.19,0.97c-0.13,0.31-0.32,0.59-0.55,0.84 c-0.23,0.23-0.51,0.42-0.82,0.55c-0.31,0.12-0.63,0.19-0.97,0.19c-0.34,0-0.67-0.07-0.97-0.19c-0.31-0.13-0.59-0.32-0.82-0.55 c-0.23-0.23-0.42-0.51-0.55-0.82c-0.12-0.3-0.19-0.63-0.19-0.97c0-0.35,0.07-0.67,0.19-0.97c0.13-0.31,0.32-0.6,0.55-0.83 c0.11-0.11,0.22-0.2,0.35-0.29c0.06-0.04,0.13-0.08,0.19-0.12v-7.38H7.53v3.2h9.89l0,0c0.31,0,0.59,0.13,0.79,0.33 c0.21,0.21,0.33,0.49,0.33,0.8v4.49c0.08,0.04,0.16,0.08,0.24,0.13c0.15,0.1,0.29,0.21,0.41,0.33l0.02,0.02 c0.22,0.23,0.4,0.51,0.53,0.81c0.12,0.3,0.19,0.63,0.19,0.97c0,0.35-0.07,0.67-0.19,0.97l-0.01,0.02 c-0.13,0.31-0.31,0.58-0.54,0.81l-0.02,0.01c-0.23,0.23-0.51,0.41-0.81,0.54C18.07,81.93,17.74,82,17.4,82 c-0.34,0-0.67-0.07-0.97-0.19c-0.31-0.13-0.6-0.32-0.82-0.55l-0.02-0.02c-0.22-0.23-0.4-0.51-0.53-0.81 c-0.12-0.31-0.19-0.63-0.19-0.97c0-0.34,0.07-0.66,0.19-0.96c0.13-0.31,0.32-0.6,0.55-0.82l0,0c0.13-0.14,0.27-0.25,0.43-0.35 c0.08-0.06,0.17-0.1,0.26-0.15v-3.34H7.53v36.24h16.88V99.33h-4.03c-0.05,0.09-0.1,0.19-0.15,0.27c-0.1,0.16-0.22,0.31-0.34,0.43 l-0.02,0.01c-0.22,0.23-0.5,0.41-0.8,0.54c-0.3,0.12-0.63,0.19-0.97,0.19c-0.35,0-0.67-0.07-0.97-0.19l0,0 c-0.31-0.13-0.59-0.32-0.84-0.55c-0.23-0.23-0.42-0.51-0.55-0.82c-0.12-0.31-0.19-0.63-0.19-0.97c0-0.35,0.07-0.67,0.19-0.97 c0.13-0.31,0.32-0.59,0.55-0.82c0.24-0.23,0.51-0.42,0.82-0.55l0.02-0.01c0.29-0.12,0.62-0.19,0.95-0.19 c0.34,0,0.67,0.07,0.97,0.19c0.31,0.13,0.59,0.32,0.82,0.55l0.02,0.02c0.12,0.12,0.22,0.24,0.31,0.38c0.05,0.08,0.1,0.15,0.13,0.23 h5.21c0.31,0,0.6,0.13,0.8,0.33c0.2,0.21,0.33,0.49,0.33,0.8v11.88h3.4V93.39l0,0c-0.09-0.04-0.17-0.09-0.25-0.14l-0.01,0 c-0.15-0.1-0.28-0.21-0.4-0.33c-0.23-0.24-0.42-0.51-0.55-0.82l-0.01-0.02c-0.12-0.3-0.19-0.62-0.19-0.96 c0-0.34,0.07-0.67,0.19-0.97c0.13-0.31,0.32-0.6,0.55-0.82c0.23-0.23,0.51-0.42,0.82-0.55c0.31-0.12,0.63-0.19,0.97-0.19 c0.35,0,0.67,0.07,0.97,0.19c0.31,0.13,0.59,0.32,0.82,0.55c0.23,0.24,0.42,0.51,0.55,0.82l0.01,0.02c0.12,0.3,0.18,0.62,0.18,0.95 c0,0.35-0.07,0.67-0.19,0.97c-0.13,0.31-0.32,0.59-0.55,0.82c-0.12,0.12-0.26,0.24-0.42,0.33c-0.08,0.05-0.17,0.1-0.25,0.14v16.68 h3.92V91.24l0,0c0-0.31,0.13-0.59,0.33-0.8c0.2-0.21,0.48-0.33,0.8-0.33h8.39c0.05-0.1,0.1-0.21,0.16-0.31 c0.11-0.17,0.24-0.34,0.38-0.48c0.24-0.23,0.51-0.42,0.82-0.55l0.02-0.01c0.3-0.12,0.62-0.18,0.95-0.18c0.34,0,0.67,0.07,0.97,0.19 c0.31,0.13,0.59,0.32,0.84,0.55c0.23,0.23,0.42,0.51,0.55,0.82c0.12,0.31,0.19,0.63,0.19,0.97c0,0.35-0.07,0.67-0.19,0.97 c-0.13,0.31-0.32,0.59-0.55,0.82c-0.23,0.23-0.51,0.42-0.82,0.55c-0.3,0.12-0.63,0.19-0.97,0.19c-0.35,0-0.67-0.07-0.97-0.19 c-0.31-0.13-0.59-0.32-0.83-0.55c-0.11-0.11-0.2-0.22-0.29-0.35c-0.04-0.06-0.08-0.13-0.12-0.19h-7.38v17.7h3.2v-9.96l0,0 c0-0.31,0.13-0.59,0.33-0.79c0.21-0.21,0.49-0.33,0.8-0.33h4.49c0.04-0.08,0.08-0.16,0.14-0.24c0.1-0.15,0.21-0.29,0.33-0.41 l0.02-0.02c0.23-0.22,0.5-0.4,0.81-0.53c0.3-0.12,0.63-0.19,0.97-0.19c0.34,0,0.67,0.07,0.97,0.19l0.02,0.01 c0.31,0.13,0.58,0.31,0.81,0.54l0.01,0.02c0.23,0.23,0.41,0.5,0.54,0.8c0.12,0.3,0.19,0.63,0.19,0.97c0,0.34-0.07,0.67-0.19,0.97 c-0.13,0.31-0.32,0.6-0.55,0.82l-0.02,0.02c-0.23,0.22-0.51,0.4-0.81,0.53c-0.31,0.12-0.63,0.19-0.97,0.19s-0.67-0.07-0.97-0.19 c-0.31-0.13-0.6-0.32-0.82-0.55l0,0c-0.13-0.13-0.25-0.27-0.35-0.43c-0.06-0.08-0.1-0.17-0.15-0.26h-3.34v8.82h71.37V7.53 L115.35,7.53z M32.83,39.61h1.43v-3.75h-1.43V39.61L32.83,39.61L32.83,39.61z M16.75,39.61h1.43v-3.75h-1.43V39.61L16.75,39.61 L16.75,39.61z M16.51,18.44h7.53c0.33,0,0.61,0.27,0.61,0.61V34c0,0.33-0.28,0.6-0.61,0.6h-7.53c-0.33,0-0.61-0.27-0.61-0.6V19.04 C15.9,18.7,16.18,18.44,16.51,18.44L16.51,18.44z M22.6,13.37h1.18v3.75H22.6V13.37L22.6,13.37L22.6,13.37L22.6,13.37z M19.8,13.37 h1.18v3.75H19.8V13.37L19.8,13.37L19.8,13.37L19.8,13.37z M16.75,13.37h1.43v3.75h-1.43V13.37L16.75,13.37L16.75,13.37L16.75,13.37 z M22.6,39.61h1.18v-3.75H22.6V39.61L22.6,39.61L22.6,39.61z M19.8,39.61h1.18v-3.75H19.8V39.61L19.8,39.61L19.8,39.61z M32.59,18.44h7.53c0.34,0,0.6,0.27,0.6,0.61V34c0,0.33-0.27,0.6-0.6,0.6h-7.53c-0.33,0-0.6-0.27-0.6-0.6V19.04 C31.98,18.7,32.26,18.44,32.59,18.44L32.59,18.44z M38.68,13.37h1.19v3.75h-1.19V13.37L38.68,13.37L38.68,13.37L38.68,13.37z M35.88,13.37h1.18v3.75h-1.18V13.37L35.88,13.37L35.88,13.37L35.88,13.37z M32.83,13.37h1.43v3.75h-1.43V13.37L32.83,13.37 L32.83,13.37L32.83,13.37z M38.68,39.61h1.19v-3.75h-1.19V39.61L38.68,39.61L38.68,39.61z M35.88,39.61h1.18v-3.75h-1.18V39.61 L35.88,39.61L35.88,39.61z M51.36,17.46c0-0.54,0.6-0.99,1.35-0.99c0.75,0,1.35,0.44,1.35,0.99v32.83c0,0.54-0.6,0.99-1.35,0.99 c-0.75,0-1.35-0.44-1.35-0.99V17.46L51.36,17.46z M60.19,17.33v1.5h5.09v-1.5H60.19L60.19,17.33L60.19,17.33z M60.19,40.18v1.51 h5.09v-1.51H60.19L60.19,40.18L60.19,40.18z M102.4,38.79v4.54c0,0.35-0.29,0.64-0.64,0.64H66.69c-0.36,0-0.64-0.29-0.64-0.64 v-4.54c0-0.35,0.28-0.64,0.64-0.64h35.07C102.11,38.15,102.4,38.44,102.4,38.79L102.4,38.79L102.4,38.79L102.4,38.79z M107.18,40.18v1.51h-3.95v-1.51H107.18L107.18,40.18L107.18,40.18L107.18,40.18z M60.19,28.75v1.51h5.09v-1.51H60.19L60.19,28.75 L60.19,28.75z M102.4,27.37v4.53c0,0.36-0.29,0.64-0.64,0.64H66.69c-0.36,0-0.64-0.28-0.64-0.64v-4.53c0-0.36,0.28-0.64,0.64-0.64 h35.07C102.11,26.73,102.4,27.01,102.4,27.37L102.4,27.37L102.4,27.37L102.4,27.37z M107.18,28.75v1.51h-3.95v-1.51H107.18 L107.18,28.75L107.18,28.75L107.18,28.75z M102.4,15.94v4.54c0,0.35-0.29,0.64-0.64,0.64H66.69c-0.36,0-0.64-0.29-0.64-0.64v-4.54 c0-0.35,0.28-0.64,0.64-0.64h35.07C102.11,15.3,102.4,15.58,102.4,15.94L102.4,15.94L102.4,15.94L102.4,15.94z M107.18,17.33v1.5 h-3.95v-1.5H107.18L107.18,17.33L107.18,17.33L107.18,17.33z M69.4,66.96h24.7c0.84,0,1.54,0.69,1.54,1.54v24.78 c0,0.85-0.69,1.54-1.54,1.54H69.4c-0.85,0-1.54-0.69-1.54-1.54V68.49C67.86,67.65,68.55,66.96,69.4,66.96L69.4,66.96L69.4,66.96 L69.4,66.96z M75.9,74.15h11.69c0.51,0,0.93,0.42,0.93,0.93v11.6c0,0.51-0.42,0.93-0.93,0.93H75.9c-0.51,0-0.93-0.42-0.93-0.93 v-11.6C74.97,74.57,75.39,74.15,75.9,74.15L75.9,74.15L75.9,74.15z M104.88,82.19v3.03h-6.8v-3.03H104.88L104.88,82.19 L104.88,82.19z M104.88,76.4v3.03h-6.8V76.4H104.88L104.88,76.4L104.88,76.4L104.88,76.4z M104.88,87.98v3.64h-6.8v-3.64H104.88 L104.88,87.98L104.88,87.98z M104.88,69.99v3.64h-6.8v-3.64H104.88L104.88,69.99L104.88,69.99z M59.54,82.19v3.03h6.8v-3.03H59.54 L59.54,82.19L59.54,82.19z M59.54,76.4v3.03h6.8V76.4H59.54L59.54,76.4L59.54,76.4z M59.54,87.98v3.64h6.8v-3.64H59.54L59.54,87.98 L59.54,87.98z M59.54,69.99v3.64h6.8v-3.64H59.54L59.54,69.99L59.54,69.99z M83.59,58.14h3.03v6.8h-3.03V58.14L83.59,58.14 L83.59,58.14L83.59,58.14z M77.8,58.14h3.03v6.8H77.8V58.14L77.8,58.14L77.8,58.14L77.8,58.14z M89.38,58.14h3.64v6.8h-3.64V58.14 L89.38,58.14L89.38,58.14L89.38,58.14z M71.39,58.14h3.64v6.8h-3.64V58.14L71.39,58.14L71.39,58.14L71.39,58.14z M83.59,103.48 h3.03v-6.8h-3.03V103.48L83.59,103.48L83.59,103.48z M77.8,103.48h3.03v-6.8H77.8V103.48L77.8,103.48L77.8,103.48z M89.38,103.48 h3.64v-6.8h-3.64V103.48L89.38,103.48L89.38,103.48z"/></g></svg>