<svg id="Layer_1" data-name="Layer 1" xmlns="http://www.w3.org/2000/svg" viewBox="0 0 84.71 122.88"><defs><style>.cls-1{fill-rule:evenodd;}</style></defs><title>power-transistor</title><path class="cls-1" d="M14.58,0H70.13L84.71,13.5V62.87a9.32,9.32,0,0,1-9.28,9.29H9.28A9.31,9.31,0,0,1,0,62.87V13.5L14.58,0ZM42.35,17.81a7.62,7.62,0,1,1-7.61,7.62,7.62,7.62,0,0,1,7.61-7.62ZM11.47,79.09H26.26v25.24H24.14l-2.07,18.55H15.65l-2.06-18.55H11.47V79.09Zm47,0H73.24v25.24H71.12l-2.06,18.55H62.64l-2.07-18.55H58.45V79.09ZM35,79.09H49.75v25.24H47.63l-2.07,18.55H39.15l-2.07-18.55H35V79.09ZM20.86,9.57h43l11.56,10.7v35a7.39,7.39,0,0,1-7.36,7.36H16.66A7.39,7.39,0,0,1,9.3,55.23v-35L20.86,9.57Z"/></svg>